<svg width="0" height="0" class="hidden">
  <symbol xmlns="http://www.w3.org/2000/svg" viewBox="0 0 32 32" id="twitter">
    <path d="M31.938 6.094c-1.2.527-2.47.875-3.766 1.031a6.602 6.602 0 0 0 2.883-3.629 13.62 13.62 0 0 1-4.168 1.578A6.57 6.57 0 0 0 19 3.77a6.566 6.566 0 0 0-3.293 7.28c-5.453-.257-10.285-2.878-13.52-6.835a6.45 6.45 0 0 0-.89 3.3 6.556 6.556 0 0 0 2.918 5.462 6.498 6.498 0 0 1-2.969-.82v.077a6.563 6.563 0 0 0 5.262 6.438 6.659 6.659 0 0 1-2.95.113 6.576 6.576 0 0 0 6.137 4.555 13.13 13.13 0 0 1-8.136 2.808A13.9 13.9 0 0 1 0 26.058a18.646 18.646 0 0 0 10.074 2.946c12.074 0 18.664-9.996 18.664-18.649 0-.277 0-.558-.02-.84A13.226 13.226 0 0 0 32 6.122Zm0 0"></path>
  </symbol>
  <symbol xmlns="http://www.w3.org/2000/svg" viewBox="0 0 32 32" id="telegram">
    <path d="M32 16c0 8.836-7.164 16-16 16S0 24.836 0 16 7.164 0 16 0s16 7.164 16 16Zm-15.426-4.188c-1.554.649-4.668 1.989-9.332 4.02-.758.3-1.152.598-1.191.883-.059.488.55.68 1.383.941l.347.11c.817.265 1.918.578 2.489.59.52.011 1.097-.204 1.734-.641 4.36-2.942 6.61-4.43 6.75-4.461.098-.024.238-.05.332.031.094.082.082.242.07.281-.058.258-2.453 2.485-3.691 3.637-.387.36-.66.613-.715.672-.125.125-.25.25-.375.371-.762.73-1.328 1.281.027 2.176.657.433 1.18.785 1.703 1.14.567.391 1.133.778 1.872 1.258.183.121.367.25.539.375.664.473 1.261.899 1.996.828.425-.039.867-.437 1.093-1.64.528-2.832 1.57-8.973 1.81-11.5.015-.211.007-.422-.024-.63a.68.68 0 0 0-.23-.437 1.051 1.051 0 0 0-.618-.183c-.602.008-1.527.332-5.969 2.18Zm0 0"></path>
  </symbol>
  <symbol xmlns="http://www.w3.org/2000/svg" viewBox="0 0 32 32" id="linkedin">
    <path d="M0 2.293C0 1.027 1.05 0 2.352 0h27.296C30.95 0 32 1.027 32 2.293v27.414C32 30.973 30.95 32 29.648 32H2.352C1.05 32 0 30.973 0 29.707Zm9.887 24.496V12.34H5.086v14.45ZM7.484 10.363c1.676 0 2.72-1.105 2.72-2.496C10.171 6.45 9.16 5.371 7.52 5.371c-1.645 0-2.72 1.082-2.72 2.496 0 1.39 1.044 2.496 2.653 2.496Zm9.817 16.426v-8.07c0-.434.035-.864.16-1.172.348-.863 1.137-1.758 2.465-1.758 1.738 0 2.433 1.324 2.433 3.27v7.73h4.801V18.5c0-4.441-2.367-6.504-5.527-6.504-2.547 0-3.692 1.399-4.332 2.387v.05h-.031c.011-.019.023-.035.03-.05V12.34h-4.796c.059 1.355 0 14.45 0 14.45Zm0 0"></path>
  </symbol>
  <symbol xmlns="http://www.w3.org/2000/svg" viewBox="0 0 32 32" id="envelope">
    <path d="M0 8c0-2.21 1.79-4 4-4h24c2.21 0 4 1.79 4 4v16c0 2.21-1.79 4-4 4H4c-2.21 0-4-1.79-4-4Zm4-2c-1.105 0-2 .895-2 2v.434l14 8.402 14-8.402V8c0-1.105-.895-2-2-2Zm26 4.766-9.516 5.71L30 22.227Zm-.066 13.757-11.391-6.882L16 19.164l-2.543-1.523-11.39 6.879A2.002 2.002 0 0 0 4 26h24c.902 0 1.695-.605 1.934-1.477ZM2 22.227l9.516-5.75L2 10.766Zm0 0"></path>
  </symbol>
  <symbol xmlns="http://www.w3.org/2000/svg" viewBox="0 0 32 32" id="location-on">
    <path d="M16 2.668A9.324 9.324 0 0 0 6.668 12C6.668 19 16 29.332 16 29.332S25.332 19 25.332 12A9.324 9.324 0 0 0 16 2.668ZM9.332 12A6.672 6.672 0 0 1 16 5.332 6.672 6.672 0 0 1 22.668 12c0 3.84-3.84 9.586-6.668 13.172C13.227 21.613 9.332 15.8 9.332 12Zm0 0"></path>
    <path d="M19.332 12a3.333 3.333 0 1 1-6.665-.001 3.333 3.333 0 0 1 6.665.001Zm0 0"></path>
  </symbol>
  <symbol xmlns="http://www.w3.org/2000/svg" viewBox="0 0 32 32" id="phone-call">
    <path d="M19.652.066a1.39 1.39 0 0 0-.746.637 1.33 1.33 0 0 0 .774 1.899c.101.03.32.07.48.09.977.113 2.262.507 3.281 1.007a10.466 10.466 0 0 1 4.903 4.95 10.59 10.59 0 0 1 .96 3.132c.094.61.196.852.466 1.11.242.234.515.336.898.336.379 0 .652-.102.898-.336.403-.387.489-.77.356-1.614A13.334 13.334 0 0 0 20.746.082c-.582-.094-.867-.098-1.094-.016M4.668 1.422a4.033 4.033 0 0 0-3.125 3.246c-.2 1.148.371 4.3 1.254 6.934 1.797 5.34 5.207 10.097 9.621 13.41a29.052 29.052 0 0 0 7.57 4.093c2.387.848 5.575 1.508 6.918 1.438 1.461-.078 2.711-.918 3.36-2.25.375-.777.375-.762.375-3.758 0-3.027.004-2.984-.407-3.82a3.962 3.962 0 0 0-2.285-2.004c-.36-.098-.722-.176-1.094-.234-1.039-.176-1.664-.332-2.777-.7-.855-.285-.941-.3-1.555-.324-.77-.031-1.246.055-1.824.336-.574.273-.824.461-1.508 1.133l-.62.61-.551-.376a20.391 20.391 0 0 1-5.23-5.254l-.321-.472.61-.621c.675-.692.866-.95 1.136-1.52.27-.566.36-1.055.332-1.824-.024-.602-.04-.688-.324-1.543-.368-1.113-.524-1.738-.7-2.777a10.267 10.267 0 0 0-.234-1.094c-.34-1-1.059-1.82-2.004-2.285-.82-.403-.765-.395-3.66-.414-2.156-.012-2.645 0-2.957.07m5.437 2.719c.493.265.633.539.805 1.554.168.989.438 2.059.742 2.965.266.777.305 1.149.157 1.508-.055.133-.454.574-1.145 1.273-1.004 1.02-1.059 1.082-1.148 1.387-.164.567-.008.957.953 2.399a22.724 22.724 0 0 0 6.172 6.21c1.57 1.06 1.953 1.215 2.53 1.047.306-.09.368-.144 1.392-1.156.656-.648 1.148-1.09 1.265-1.14.348-.145.738-.102 1.512.16.906.304 1.976.574 2.96.742 1.02.172 1.302.32 1.575.832.09.172.102.36.113 2.492.012 1.516-.004 2.379-.039 2.516-.14.52-.715.965-1.238.965-.332 0-1.277-.133-2.152-.301-6.512-1.258-12.426-5.13-16.075-10.528-1.757-2.601-2.91-5.105-3.652-7.949-.34-1.293-.668-3.172-.672-3.816 0-.34.215-.781.488-.996.38-.301.399-.305 2.926-.29 2.262.012 2.324.016 2.531.126m9.547 1.257a1.32 1.32 0 0 0-.898 1.27c0 .281.027.398.152.629.203.375.492.57 1.051.707 2.035.504 3.492 1.941 4.02 3.965.164.64.34.914.726 1.125.36.195.79.215 1.168.047.375-.164.652-.496.75-.895.176-.652-.418-2.348-1.254-3.578-.422-.625-1.41-1.613-2.035-2.035-1.312-.89-3.031-1.465-3.68-1.235"></path>
  </symbol>
</svg>